<svg width="22" height="22" viewBox="0 0 22 22" fill="none" xmlns="http://www.w3.org/2000/svg">
<path d="M10.946 5.35986C7.84058 5.35986 5.33569 7.86475 5.33569 10.9702C5.33569 14.0757 7.84058 16.5806 10.946 16.5806C14.0515 16.5806 16.5564 14.0757 16.5564 10.9702C16.5564 7.86475 14.0515 5.35986 10.946 5.35986ZM10.946 14.6177C8.93921 14.6177 7.29858 12.9819 7.29858 10.9702C7.29858 8.9585 8.93433 7.32275 10.946 7.32275C12.9578 7.32275 14.5935 8.9585 14.5935 10.9702C14.5935 12.9819 12.9529 14.6177 10.946 14.6177V14.6177ZM18.0945 5.13037C18.0945 5.85791 17.5085 6.43897 16.7859 6.43897C16.0584 6.43897 15.4773 5.85303 15.4773 5.13037C15.4773 4.40771 16.0632 3.82178 16.7859 3.82178C17.5085 3.82178 18.0945 4.40771 18.0945 5.13037ZM21.8103 6.4585C21.7273 4.70557 21.3269 3.15283 20.0427 1.87354C18.7634 0.594238 17.2107 0.193848 15.4578 0.105957C13.6511 0.00341798 8.23608 0.00341798 6.42944 0.105957C4.6814 0.188965 3.12866 0.589355 1.84448 1.86865C0.560303 3.14795 0.164795 4.70068 0.0769043 6.45361C-0.0256348 8.26025 -0.0256348 13.6753 0.0769043 15.4819C0.159912 17.2349 0.560303 18.7876 1.84448 20.0669C3.12866 21.3462 4.67651 21.7466 6.42944 21.8345C8.23608 21.937 13.6511 21.937 15.4578 21.8345C17.2107 21.7515 18.7634 21.3511 20.0427 20.0669C21.322 18.7876 21.7224 17.2349 21.8103 15.4819C21.9128 13.6753 21.9128 8.26514 21.8103 6.4585V6.4585ZM19.4763 17.4204C19.0955 18.3774 18.3582 19.1147 17.3962 19.5005C15.9558 20.0718 12.5378 19.9399 10.946 19.9399C9.35425 19.9399 5.9314 20.0669 4.49585 19.5005C3.53882 19.1196 2.80151 18.3823 2.41577 17.4204C1.84448 15.98 1.97632 12.562 1.97632 10.9702C1.97632 9.37842 1.84937 5.95557 2.41577 4.52002C2.79663 3.56299 3.53394 2.82568 4.49585 2.43994C5.93628 1.86865 9.35425 2.00049 10.946 2.00049C12.5378 2.00049 15.9607 1.87353 17.3962 2.43994C18.3533 2.8208 19.0906 3.55811 19.4763 4.52002C20.0476 5.96045 19.9158 9.37842 19.9158 10.9702C19.9158 12.562 20.0476 15.9849 19.4763 17.4204Z" fill="black"/>
</svg>
