<svg width="19" height="19" viewBox="0 0 19 19" fill="none" xmlns="http://www.w3.org/2000/svg">
<path d="M3.875 5.34937V18.0291H0.488281V5.34937H3.875ZM0.277344 2.04468C0.277344 1.55249 0.449219 1.14624 0.792969 0.825928C1.13672 0.505615 1.59766 0.345459 2.17578 0.345459C2.74609 0.345459 3.20312 0.505615 3.54688 0.825928C3.89844 1.14624 4.07422 1.55249 4.07422 2.04468C4.07422 2.53687 3.89844 2.94312 3.54688 3.26343C3.20312 3.58374 2.74609 3.7439 2.17578 3.7439C1.59766 3.7439 1.13672 3.58374 0.792969 3.26343C0.449219 2.94312 0.277344 2.53687 0.277344 2.04468ZM10.4488 8.0564V18.0291H7.07375V5.34937H10.2378L10.4488 8.0564ZM9.95656 11.2439H9.0425C9.0425 10.3064 9.16359 9.46265 9.40578 8.71265C9.64797 7.95483 9.98781 7.3103 10.4253 6.77905C10.8628 6.23999 11.3823 5.82983 11.9839 5.54858C12.5933 5.25952 13.273 5.11499 14.023 5.11499C14.6167 5.11499 15.1597 5.20093 15.6519 5.3728C16.1441 5.54468 16.5659 5.81812 16.9175 6.19312C17.2769 6.56812 17.5503 7.06421 17.7378 7.6814C17.9331 8.29858 18.0308 9.05249 18.0308 9.94312V18.0291H14.6323V9.9314C14.6323 9.3689 14.5542 8.9314 14.398 8.6189C14.2417 8.3064 14.0113 8.08765 13.7066 7.96265C13.4097 7.82983 13.0425 7.76343 12.605 7.76343C12.1519 7.76343 11.7573 7.85327 11.4214 8.03296C11.0933 8.21265 10.8198 8.46265 10.6011 8.78296C10.3902 9.09546 10.23 9.46265 10.1206 9.88452C10.0113 10.3064 9.95656 10.7595 9.95656 11.2439Z" fill="black"/>
</svg>
