<svg width="25" height="21" viewBox="0 0 25 21" fill="none" xmlns="http://www.w3.org/2000/svg">
<path d="M22.4302 5.08931C22.446 5.31138 22.446 5.5335 22.446 5.75557C22.446 12.529 17.2906 20.3336 7.86802 20.3336C4.96509 20.3336 2.26841 19.4928 0 18.0335C0.412451 18.0811 0.808984 18.0969 1.2373 18.0969C3.63257 18.0969 5.83755 17.2879 7.59834 15.9079C5.3458 15.8603 3.45811 14.385 2.80771 12.3545C3.125 12.4021 3.44224 12.4338 3.77539 12.4338C4.2354 12.4338 4.69546 12.3704 5.12373 12.2594C2.77603 11.7834 1.01519 9.72129 1.01519 7.23081V7.16738C1.69727 7.5481 2.49048 7.78603 3.33115 7.81772C1.95107 6.89766 1.04692 5.32725 1.04692 3.55059C1.04692 2.59883 1.30068 1.72637 1.74487 0.964941C4.26709 4.07407 8.05835 6.10449 12.3096 6.32661C12.2303 5.9459 12.1827 5.54937 12.1827 5.15278C12.1827 2.32915 14.4669 0.0290527 17.3064 0.0290527C18.7816 0.0290527 20.1141 0.647705 21.05 1.64707C22.208 1.425 23.3184 0.99668 24.302 0.409766C23.9212 1.59951 23.1122 2.59888 22.0494 3.23335C23.0805 3.12236 24.0799 2.83677 24.9999 2.44023C24.302 3.45542 23.4295 4.35957 22.4302 5.08931V5.08931Z" fill="black"/>
</svg>
